# xmcd
# 
# Track frame offsets:
#     150
#     15303
#     34333
#     46776
# 
# Disc length: 877
# 
# Revision: 0
# Processed by: cddbd v1.5.2PL0 Copyright (c) Steve Scherf et al.
# Submitted via: BonkEnc v1.0.8
# 
DISCID=23036b04
DTITLE=Madcap-Charlie - Freak this world
DYEAR=0
DGENRE=
TTITLE0=freak this world live
TTITLE1=gv knaack 26.02.09
TTITLE2=single malt live
TTITLE3=aac knaack 26.02.09
EXTD=
EXTT0=
EXTT1=
EXTT2=
EXTT3=
PLAYORDER=
